<svg width="18" height="19" viewBox="0 0 18 19" fill="none" xmlns="http://www.w3.org/2000/svg">
<path d="M7.20334 17.1457C7.34557 17.4044 7.55467 17.6202 7.80879 17.7704C8.06291 17.9207 8.35272 18 8.64795 18C8.94318 18 9.23299 17.9207 9.48711 17.7704C9.74123 17.6202 9.95033 17.4044 10.0926 17.1457M3.54932 6.09864C3.54932 4.7464 4.0865 3.44954 5.04268 2.49336C5.99886 1.53718 7.29572 1 8.64796 1C10.0002 1 11.2971 1.53718 12.2532 2.49336C13.2094 3.44954 13.7466 4.7464 13.7466 6.09864C13.7466 12.0471 16.2959 13.7466 16.2959 13.7466H1C1 13.7466 3.54932 12.0471 3.54932 6.09864Z" stroke="white" stroke-width="2" stroke-linecap="round" stroke-linejoin="round"/>
</svg>
