<svg width="216" height="79" viewBox="0 0 216 79" fill="none" xmlns="http://www.w3.org/2000/svg">
<path d="M22.2586 50.0349C23.1362 54.0202 24.5732 57.7921 26.5696 61.3505C28.5556 64.8614 30.8971 67.9216 33.5942 70.5311C36.2534 73.1406 39.1715 75.2044 42.3485 76.7226C45.4876 78.2409 49.2522 76.7226 52.4739 76.7226C55.3544 76.7226 56.4914 76.7677 58.8729 75.5341C61.244 74.2531 62.5115 73.165 65.7807 71.5986C68.4361 74.0183 71.2314 75.8686 74.1666 77.1497C77.0534 78.3832 79.9561 79 82.8746 79C86.0963 79 88.9423 78.2409 91.4128 76.7226C93.8832 75.2044 95.8924 73.1406 97.4403 70.5311C98.9503 67.9216 99.9252 64.8614 100.365 61.3505C100.794 57.7921 100.57 54.0202 99.6926 50.0349L89.0051 1.49868H73.4842L84.1717 50.0349C84.4642 51.3633 84.5516 52.6206 84.4337 53.8067C84.2675 54.9454 83.9426 55.9655 83.4588 56.8669C82.9268 57.7209 82.2633 58.4089 81.4686 58.9308C80.6255 59.4052 79.6734 59.6425 78.6121 59.6425C77.5508 59.6425 76.4942 59.4052 75.4422 58.9308C74.3797 58.4089 73.3944 57.7209 72.4862 56.8669C71.5675 55.9655 70.7934 54.9454 70.1636 53.8067C69.4855 52.6206 69.0002 51.3633 68.7076 50.0349L58.0201 1.49868H42.5561L53.2436 50.0349C53.5361 51.3633 53.6045 52.6206 53.4488 53.8067C53.2826 54.9454 52.9576 55.9655 52.4739 56.8669C51.9418 57.7209 51.2784 58.4089 50.4836 58.9308C49.6406 59.4052 48.6884 59.6425 47.6271 59.6425C46.5659 59.6425 45.5092 59.4052 44.4572 58.9308C43.3947 58.4089 42.4284 57.7209 41.5581 56.8669C40.6394 55.9655 39.8463 54.9454 39.1786 53.8067C38.5005 52.6206 38.0152 51.3633 37.7227 50.0349L27.0352 1.49868H11.5711L22.2586 50.0349Z" fill="#313131"/>
<path d="M78.3179 50.0349C77.4404 54.0202 76.0034 57.7921 74.007 61.3505C72.021 64.8614 69.6795 67.9216 66.9823 70.5311C64.3231 73.1406 61.405 75.2044 58.2281 76.7226C55.089 78.2409 51.9086 79 48.6869 79C45.8064 79 43.1753 78.3832 40.7938 77.1497C38.4227 75.8686 36.4234 74.0183 34.7958 71.5986C32.1405 74.0183 29.3452 75.8686 26.41 77.1497C23.5231 78.3832 20.6204 79 17.702 79C14.4803 79 11.6342 78.2409 9.16378 76.7226C6.69334 75.2044 4.68416 73.1406 3.13624 70.5311C1.62622 67.9216 0.651327 64.8614 0.211555 61.3505C-0.21777 57.7921 0.00635189 54.0202 0.88392 50.0349L11.5711 1.49868H27.0924L16.4048 50.0349C16.1123 51.3633 16.025 52.6206 16.1428 53.8067C16.309 54.9454 16.634 55.9655 17.1177 56.8669C17.6498 57.7209 18.3132 58.4089 19.1079 58.9308C19.951 59.4052 20.9032 59.6425 21.9644 59.6425C23.0257 59.6425 24.0823 59.4052 25.1344 58.9308C26.1968 58.4089 27.1822 57.7209 28.0904 56.8669C29.009 55.9655 29.7832 54.9454 30.413 53.8067C31.0911 52.6206 31.5764 51.3633 31.8689 50.0349L42.5561 1.49868H58.0201L47.333 50.0349C47.0404 51.3633 46.972 52.6206 47.1278 53.8067C47.294 54.9454 47.6189 55.9655 48.1027 56.8669C48.6348 57.7209 49.2982 58.4089 50.0929 58.9308C50.936 59.4052 51.8882 59.6425 52.9494 59.6425C54.0107 59.6425 55.0673 59.4052 56.1193 58.9308C57.1818 58.4089 58.1482 57.7209 59.0185 56.8669C59.9371 55.9655 60.7303 54.9454 61.3979 53.8067C62.076 52.6206 62.5613 51.3633 62.8539 50.0349L73.5414 1.49868H89.0051L78.3179 50.0349Z" fill="white"/>
<path d="M137.69 12.1453C140.28 12.1453 142.454 13.0885 144.212 14.9748C146.002 16.8292 146.897 19.4669 146.897 22.8879V37.4671H137.69V24.4225C137.69 23.0797 137.354 22.1046 136.683 21.4971C136.011 20.8896 135.196 20.5859 134.237 20.5859C133.31 20.5859 132.495 20.9056 131.791 21.5451C131.12 22.1845 130.784 23.1437 130.784 24.4225V37.4671H121.577V12.9126H130.784V15.982C131.456 14.735 132.415 13.7919 133.662 13.1524C134.908 12.481 136.251 12.1453 137.69 12.1453Z" fill="white"/>
<path d="M166.474 20.5859H161.87V26.7245C161.87 28.5469 162.142 29.7299 162.685 30.2734C163.26 30.8169 164.523 30.9128 166.474 30.5611V37.4671C164.811 37.9786 162.765 38.2344 160.335 38.2344C157.554 38.2344 155.588 37.563 154.437 36.2202C153.286 34.8454 152.694 32.7512 152.662 29.9377V20.5859H149.593V12.9126H152.662V5.23939H161.87V12.9126H166.474V20.5859Z" fill="white"/>
<path d="M194.49 25.1899C194.49 25.7014 194.426 26.4687 194.298 27.4918H178.664C178.856 28.451 179.463 29.2023 180.486 29.7459C181.509 30.2894 182.756 30.5611 184.227 30.5611C185.378 30.5611 186.481 30.4332 187.536 30.1775C188.591 29.9217 189.358 29.6659 189.838 29.4101L190.557 29.0265L192.907 35.9324C192.651 36.0923 192.268 36.3001 191.756 36.5559C191.276 36.8116 190.205 37.1473 188.543 37.563C186.881 38.0106 185.154 38.2344 183.364 38.2344C178.664 38.2344 175.115 37.0195 172.718 34.5896C170.352 32.1278 169.169 28.9945 169.169 25.1899C169.169 21.3852 170.288 18.2679 172.526 15.8381C174.764 13.3762 177.993 12.1453 182.213 12.1453C186.145 12.1453 189.166 13.2963 191.276 15.5983C193.419 17.8683 194.49 21.0655 194.49 25.1899ZM178.664 22.8879H185.09C185.09 21.8008 184.802 20.8896 184.227 20.1543C183.683 19.4189 182.884 19.0513 181.829 19.0513C180.902 19.0513 180.135 19.4349 179.527 20.2022C178.952 20.9696 178.664 21.8648 178.664 22.8879Z" fill="white"/>
<path d="M206.792 17.9482C208.327 14.3993 211.396 12.465 216 12.1453V22.5522C214.849 21.8488 213.57 21.5131 212.164 21.5451C210.853 21.641 209.622 22.2165 208.471 23.2715C207.352 24.3266 206.792 25.7174 206.792 27.4439V37.4671H197.585V12.9126H206.792V17.9482Z" fill="white"/>
<path d="M117.451 37.4671H110.444V12.9438H117.451V37.4671Z" fill="white"/>
<path d="M115.583 2.14399C115.787 1.97885 115.822 1.67588 115.66 1.4673C115.499 1.25871 115.202 1.22348 114.998 1.38862L115.583 2.14399ZM113.728 2.41629C113.524 2.58143 113.49 2.88439 113.651 3.09298C113.813 3.30157 114.109 3.3368 114.313 3.17166L113.728 2.41629ZM113.728 3.17166C113.932 3.3368 114.229 3.30157 114.39 3.09298C114.552 2.88439 114.517 2.58143 114.313 2.41629L113.728 3.17166ZM113.043 1.38862C112.839 1.22348 112.543 1.25871 112.381 1.4673C112.219 1.67588 112.254 1.97885 112.458 2.14399L113.043 1.38862ZM113.549 2.79397C113.549 3.06002 113.76 3.27569 114.021 3.27569C114.281 3.27569 114.492 3.06002 114.492 2.79397H113.549ZM114.492 0.481719C114.492 0.215675 114.281 0 114.021 0C113.76 0 113.549 0.215675 113.549 0.481719H114.492ZM114.492 2.79397C114.492 2.52793 114.281 2.31225 114.021 2.31225C113.76 2.31225 113.549 2.52793 113.549 2.79397H114.492ZM113.549 8.44615C113.549 8.71218 113.76 8.92787 114.021 8.92787C114.281 8.92787 114.492 8.71218 114.492 8.44615H113.549ZM112.458 9.09615C112.254 9.26128 112.219 9.56425 112.381 9.7728C112.543 9.98142 112.839 10.0166 113.043 9.85148L112.458 9.09615ZM114.313 8.82382C114.517 8.65868 114.552 8.35571 114.39 8.14716C114.229 7.93854 113.932 7.90335 113.728 8.06848L114.313 8.82382ZM114.313 8.06848C114.109 7.90335 113.813 7.93854 113.651 8.14716C113.49 8.35571 113.524 8.65868 113.728 8.82382L114.313 8.06848ZM114.998 9.85148C115.202 10.0166 115.499 9.98142 115.66 9.7728C115.822 9.56425 115.787 9.26128 115.583 9.09615L114.998 9.85148ZM114.492 8.44615C114.492 8.18011 114.281 7.96443 114.021 7.96443C113.76 7.96443 113.549 8.18011 113.549 8.44615H114.492ZM113.549 10.7584C113.549 11.0244 113.76 11.2401 114.021 11.2401C114.281 11.2401 114.492 11.0244 114.492 10.7584H113.549ZM110.257 5.9852C110.014 5.88924 109.741 6.01263 109.647 6.26075C109.553 6.50886 109.674 6.78781 109.917 6.88377L110.257 5.9852ZM111.431 7.48239C111.674 7.57835 111.947 7.45496 112.041 7.20684C112.135 6.95873 112.014 6.67978 111.771 6.58382L111.431 7.48239ZM112.067 7.10645C112.107 6.8435 111.93 6.5975 111.673 6.55697C111.416 6.51651 111.175 6.6968 111.135 6.95975L112.067 7.10645ZM110.89 8.58604C110.851 8.84899 111.027 9.09499 111.284 9.13552C111.542 9.17599 111.782 8.99569 111.822 8.73274L110.89 8.58604ZM111.835 7.45136C112.061 7.31937 112.14 7.02507 112.01 6.79411C111.881 6.56314 111.593 6.48285 111.367 6.61484L111.835 7.45136ZM109.388 7.77097C109.162 7.90296 109.083 8.19726 109.212 8.42823C109.341 8.6592 109.629 8.73948 109.855 8.60749L109.388 7.77097ZM111.367 6.61484C111.141 6.74683 111.063 7.04113 111.192 7.2721C111.321 7.50307 111.609 7.58336 111.835 7.45136L111.367 6.61484ZM116.674 4.62528C116.9 4.49329 116.979 4.19901 116.849 3.96802C116.72 3.73703 116.432 3.65677 116.206 3.78877L116.674 4.62528ZM117.785 5.25492C118.028 5.35088 118.3 5.22749 118.394 4.97937C118.488 4.73126 118.367 4.45231 118.125 4.35635L117.785 5.25492ZM116.61 3.75773C116.367 3.66176 116.094 3.78513 116.001 4.03326C115.907 4.2814 116.027 4.56034 116.27 4.6563L116.61 3.75773ZM115.974 4.13368C115.935 4.39662 116.111 4.64262 116.368 4.68315C116.626 4.72361 116.866 4.54332 116.906 4.28035L115.974 4.13368ZM117.151 2.65406C117.191 2.39112 117.014 2.14513 116.757 2.10463C116.5 2.06412 116.259 2.24445 116.219 2.5074L117.151 2.65406ZM116.206 3.78877C115.98 3.92076 115.902 4.21503 116.031 4.44601C116.16 4.67698 116.448 4.75727 116.674 4.62528L116.206 3.78877ZM118.654 3.46914C118.88 3.33714 118.958 3.04288 118.829 2.81189C118.7 2.5809 118.412 2.50064 118.186 2.63264L118.654 3.46914ZM109.917 4.35635C109.674 4.45231 109.553 4.73126 109.647 4.97937C109.741 5.22749 110.014 5.35088 110.257 5.25492L109.917 4.35635ZM111.771 4.6563C112.014 4.56034 112.135 4.2814 112.041 4.03326C111.947 3.78513 111.674 3.66176 111.431 3.75773L111.771 4.6563ZM111.135 4.28035C111.175 4.54332 111.416 4.72361 111.673 4.68315C111.93 4.64262 112.107 4.39662 112.067 4.13368L111.135 4.28035ZM111.822 2.5074C111.782 2.24445 111.542 2.06412 111.284 2.10463C111.027 2.14513 110.851 2.39112 110.89 2.65406L111.822 2.5074ZM111.367 4.62528C111.593 4.75727 111.881 4.67698 112.01 4.44601C112.14 4.21503 112.061 3.92076 111.835 3.78877L111.367 4.62528ZM109.855 2.63264C109.629 2.50064 109.341 2.5809 109.212 2.81189C109.083 3.04288 109.162 3.33714 109.388 3.46914L109.855 2.63264ZM111.835 3.78877C111.609 3.65677 111.321 3.73703 111.192 3.96802C111.063 4.19901 111.141 4.49329 111.367 4.62528L111.835 3.78877ZM116.206 7.45136C116.432 7.58336 116.72 7.50307 116.849 7.2721C116.979 7.04113 116.9 6.74683 116.674 6.61484L116.206 7.45136ZM118.125 6.88377C118.367 6.78781 118.488 6.50886 118.394 6.26075C118.3 6.01263 118.028 5.88924 117.785 5.9852L118.125 6.88377ZM116.27 6.58382C116.027 6.67978 115.907 6.95873 116.001 7.20684C116.094 7.45496 116.367 7.57835 116.61 7.48239L116.27 6.58382ZM116.906 6.95975C116.866 6.6968 116.626 6.51651 116.368 6.55697C116.111 6.5975 115.935 6.8435 115.974 7.10645L116.906 6.95975ZM116.219 8.73274C116.259 8.99569 116.5 9.17599 116.757 9.13552C117.014 9.09499 117.191 8.84899 117.151 8.58604L116.219 8.73274ZM116.674 6.61484C116.448 6.48285 116.16 6.56314 116.031 6.79411C115.902 7.02507 115.98 7.31937 116.206 7.45136L116.674 6.61484ZM118.186 8.60749C118.412 8.73948 118.7 8.6592 118.829 8.42823C118.958 8.19726 118.88 7.90296 118.654 7.77097L118.186 8.60749ZM114.998 1.38862L113.728 2.41629L114.313 3.17166L115.583 2.14399L114.998 1.38862ZM114.313 2.41629L113.043 1.38862L112.458 2.14399L113.728 3.17166L114.313 2.41629ZM114.492 2.79397V0.481719H113.549V2.79397H114.492ZM113.549 2.79397V8.44615H114.492V2.79397H113.549ZM113.043 9.85148L114.313 8.82382L113.728 8.06848L112.458 9.09615L113.043 9.85148ZM113.728 8.82382L114.998 9.85148L115.583 9.09615L114.313 8.06848L113.728 8.82382ZM113.549 8.44615V10.7584H114.492V8.44615H113.549ZM109.917 6.88377L111.431 7.48239L111.771 6.58382L110.257 5.9852L109.917 6.88377ZM111.135 6.95975L110.89 8.58604L111.822 8.73274L112.067 7.10645L111.135 6.95975ZM111.367 6.61484L109.388 7.77097L109.855 8.60749L111.835 7.45136L111.367 6.61484ZM111.835 7.45136L116.674 4.62528L116.206 3.78877L111.367 6.61484L111.835 7.45136ZM118.125 4.35635L116.61 3.75773L116.27 4.6563L117.785 5.25492L118.125 4.35635ZM116.906 4.28035L117.151 2.65406L116.219 2.5074L115.974 4.13368L116.906 4.28035ZM116.674 4.62528L118.654 3.46914L118.186 2.63264L116.206 3.78877L116.674 4.62528ZM110.257 5.25492L111.771 4.6563L111.431 3.75773L109.917 4.35635L110.257 5.25492ZM112.067 4.13368L111.822 2.5074L110.89 2.65406L111.135 4.28035L112.067 4.13368ZM111.835 3.78877L109.855 2.63264L109.388 3.46914L111.367 4.62528L111.835 3.78877ZM111.367 4.62528L116.206 7.45136L116.674 6.61484L111.835 3.78877L111.367 4.62528ZM117.785 5.9852L116.27 6.58382L116.61 7.48239L118.125 6.88377L117.785 5.9852ZM115.974 7.10645L116.219 8.73274L117.151 8.58604L116.906 6.95975L115.974 7.10645ZM116.206 7.45136L118.186 8.60749L118.654 7.77097L116.674 6.61484L116.206 7.45136Z" fill="#313131"/>
<path d="M117.451 77.9315H110.444V53.4083H117.451V77.9315Z" fill="white"/>
<path d="M132.481 61.6258C134.399 61.8496 135.95 62.1054 137.132 62.3932C138.347 62.6809 139.514 63.1285 140.633 63.736C141.752 64.3115 142.567 65.1108 143.079 66.1339C143.59 67.157 143.846 68.4358 143.846 69.9705C143.846 72.6561 142.823 74.7823 140.777 76.3489C138.731 77.9155 135.55 78.6988 131.234 78.6988C128.964 78.6988 126.838 78.4111 124.856 77.8356C122.874 77.2601 121.451 76.6846 120.588 76.1091L119.293 75.2459L121.595 68.7236C122.586 69.395 123.769 69.9705 125.143 70.4501C126.55 70.8977 127.701 71.1854 128.596 71.3133L129.891 71.5051C133.056 71.8568 134.639 71.633 134.639 70.8337C134.639 70.482 134.399 70.2263 133.919 70.0664C133.472 69.9065 132.257 69.6827 130.275 69.395C123.465 68.4358 120.06 65.9101 120.06 61.8177C120.06 59.0681 121.131 56.846 123.273 55.1515C125.447 53.457 128.66 52.6098 132.912 52.6098C136.621 52.6417 139.754 53.3291 142.312 54.6719L140.01 61.2422C138.155 60.2191 135.598 59.6755 132.337 59.6116C130.291 59.5796 129.268 59.8514 129.268 60.4269C129.268 60.9384 129.843 61.2741 130.994 61.434C131.25 61.466 131.665 61.5139 132.241 61.5779L132.289 61.6258H132.481Z" fill="white"/>
<path d="M171.074 65.6543C171.074 66.1658 171.01 66.9332 170.882 67.9563H155.248C155.44 68.9154 156.047 69.6668 157.07 70.2103C158.094 70.7538 159.34 71.0256 160.811 71.0256C161.962 71.0256 163.065 70.8977 164.12 70.6419C165.175 70.3861 165.942 70.1304 166.422 69.8746L167.141 69.4909L169.491 76.3969C169.235 76.5567 168.852 76.7645 168.34 77.0203C167.861 77.2761 166.79 77.6118 165.127 78.0274C163.465 78.475 161.738 78.6988 159.948 78.6988C155.248 78.6988 151.699 77.4839 149.302 75.054C146.936 72.5922 145.753 69.4589 145.753 65.6543C145.753 61.8496 146.872 58.7324 149.11 56.3025C151.348 53.8407 154.577 52.6098 158.797 52.6098C162.729 52.6098 165.75 53.7607 167.861 56.0627C170.003 58.3327 171.074 61.5299 171.074 65.6543ZM155.248 63.3523H161.674C161.674 62.2653 161.386 61.3541 160.811 60.6187C160.268 59.8834 159.468 59.5157 158.413 59.5157C157.486 59.5157 156.719 59.8993 156.111 60.6667C155.536 61.434 155.248 62.3292 155.248 63.3523Z" fill="white"/>
<path d="M115.583 42.6084C115.787 42.4433 115.822 42.1403 115.66 41.9317C115.499 41.7231 115.202 41.6879 114.998 41.8531L115.583 42.6084ZM113.728 42.8807C113.524 43.0459 113.49 43.3488 113.651 43.5574C113.813 43.766 114.109 43.8012 114.313 43.6361L113.728 42.8807ZM113.728 43.6361C113.932 43.8012 114.229 43.766 114.39 43.5574C114.552 43.3488 114.517 43.0459 114.313 42.8807L113.728 43.6361ZM113.043 41.8531C112.839 41.6879 112.543 41.7231 112.381 41.9317C112.219 42.1403 112.254 42.4433 112.458 42.6084L113.043 41.8531ZM113.549 43.2584C113.549 43.5244 113.76 43.7401 114.021 43.7401C114.281 43.7401 114.492 43.5244 114.492 43.2584H113.549ZM114.492 40.9461C114.492 40.6801 114.281 40.4644 114.021 40.4644C113.76 40.4644 113.549 40.6801 113.549 40.9461H114.492ZM114.492 43.2584C114.492 42.9924 114.281 42.7767 114.021 42.7767C113.76 42.7767 113.549 42.9924 113.549 43.2584H114.492ZM113.549 48.9106C113.549 49.1766 113.76 49.3923 114.021 49.3923C114.281 49.3923 114.492 49.1766 114.492 48.9106H113.549ZM112.458 49.5606C112.254 49.7257 112.219 50.0287 112.381 50.2372C112.543 50.4458 112.839 50.481 113.043 50.3159L112.458 49.5606ZM114.313 49.2882C114.517 49.1231 114.552 48.8201 114.39 48.6116C114.229 48.403 113.932 48.3678 113.728 48.5329L114.313 49.2882ZM114.313 48.5329C114.109 48.3678 113.813 48.403 113.651 48.6116C113.49 48.8201 113.524 49.1231 113.728 49.2882L114.313 48.5329ZM114.998 50.3159C115.202 50.481 115.499 50.4458 115.66 50.2372C115.822 50.0287 115.787 49.7257 115.583 49.5606L114.998 50.3159ZM114.492 48.9106C114.492 48.6445 114.281 48.4289 114.021 48.4289C113.76 48.4289 113.549 48.6445 113.549 48.9106H114.492ZM113.549 51.2228C113.549 51.4889 113.76 51.7046 114.021 51.7046C114.281 51.7046 114.492 51.4889 114.492 51.2228H113.549ZM110.257 46.4496C110.014 46.3537 109.741 46.4771 109.647 46.7252C109.553 46.9733 109.674 47.2522 109.917 47.3482L110.257 46.4496ZM111.431 47.9468C111.674 48.0428 111.947 47.9194 112.041 47.6713C112.135 47.4232 112.014 47.1442 111.771 47.0483L111.431 47.9468ZM112.067 47.5709C112.107 47.3079 111.93 47.0619 111.673 47.0214C111.416 46.9809 111.175 47.1612 111.135 47.4242L112.067 47.5709ZM110.89 49.0505C110.851 49.3134 111.027 49.5594 111.284 49.5999C111.542 49.6404 111.782 49.4601 111.822 49.1972L110.89 49.0505ZM111.835 47.9158C112.061 47.7838 112.14 47.4895 112.01 47.2585C111.881 47.0276 111.593 46.9473 111.367 47.0793L111.835 47.9158ZM109.388 48.2354C109.162 48.3674 109.083 48.6617 109.212 48.8927C109.341 49.1236 109.629 49.2039 109.855 49.0719L109.388 48.2354ZM111.367 47.0793C111.141 47.2113 111.063 47.5056 111.192 47.7365C111.321 47.9675 111.609 48.0478 111.835 47.9158L111.367 47.0793ZM116.674 45.0897C116.9 44.9577 116.979 44.6634 116.849 44.4325C116.72 44.2015 116.432 44.1212 116.206 44.2532L116.674 45.0897ZM117.785 45.7193C118.028 45.8153 118.3 45.6919 118.394 45.4438C118.488 45.1957 118.367 44.9167 118.125 44.8208L117.785 45.7193ZM116.61 44.2222C116.367 44.1262 116.094 44.2496 116.001 44.4977C115.907 44.7458 116.027 45.0248 116.27 45.1207L116.61 44.2222ZM115.974 44.5981C115.935 44.8611 116.111 45.1071 116.368 45.1476C116.626 45.188 116.866 45.0078 116.906 44.7448L115.974 44.5981ZM117.151 43.1185C117.191 42.8555 117.014 42.6096 116.757 42.5691C116.5 42.5286 116.259 42.7089 116.219 42.9718L117.151 43.1185ZM116.206 44.2532C115.98 44.3852 115.902 44.6795 116.031 44.9104C116.16 45.1414 116.448 45.2217 116.674 45.0897L116.206 44.2532ZM118.654 43.9336C118.88 43.8016 118.958 43.5073 118.829 43.2763C118.7 43.0453 118.412 42.9651 118.186 43.0971L118.654 43.9336ZM109.917 44.8208C109.674 44.9167 109.553 45.1957 109.647 45.4438C109.741 45.6919 110.014 45.8153 110.257 45.7193L109.917 44.8208ZM111.771 45.1207C112.014 45.0248 112.135 44.7458 112.041 44.4977C111.947 44.2496 111.674 44.1262 111.431 44.2222L111.771 45.1207ZM111.135 44.7448C111.175 45.0078 111.416 45.188 111.673 45.1476C111.93 45.1071 112.107 44.8611 112.067 44.5981L111.135 44.7448ZM111.822 42.9718C111.782 42.7089 111.542 42.5286 111.284 42.5691C111.027 42.6096 110.851 42.8555 110.89 43.1185L111.822 42.9718ZM111.367 45.0897C111.593 45.2217 111.881 45.1414 112.01 44.9104C112.14 44.6795 112.061 44.3852 111.835 44.2532L111.367 45.0897ZM109.855 43.0971C109.629 42.9651 109.341 43.0453 109.212 43.2763C109.083 43.5073 109.162 43.8016 109.388 43.9336L109.855 43.0971ZM111.835 44.2532C111.609 44.1212 111.321 44.2015 111.192 44.4325C111.063 44.6634 111.141 44.9577 111.367 45.0897L111.835 44.2532ZM116.206 47.9158C116.432 48.0478 116.72 47.9675 116.849 47.7365C116.979 47.5056 116.9 47.2113 116.674 47.0793L116.206 47.9158ZM118.125 47.3482C118.367 47.2522 118.488 46.9733 118.394 46.7252C118.3 46.4771 118.028 46.3537 117.785 46.4496L118.125 47.3482ZM116.27 47.0483C116.027 47.1442 115.907 47.4232 116.001 47.6713C116.094 47.9194 116.367 48.0428 116.61 47.9468L116.27 47.0483ZM116.906 47.4242C116.866 47.1612 116.626 46.9809 116.368 47.0214C116.111 47.0619 115.935 47.3079 115.974 47.5709L116.906 47.4242ZM116.219 49.1972C116.259 49.4601 116.5 49.6404 116.757 49.5999C117.014 49.5594 117.191 49.3134 117.151 49.0505L116.219 49.1972ZM116.674 47.0793C116.448 46.9473 116.16 47.0276 116.031 47.2585C115.902 47.4895 115.98 47.7838 116.206 47.9158L116.674 47.0793ZM118.186 49.0719C118.412 49.2039 118.7 49.1236 118.829 48.8927C118.958 48.6617 118.88 48.3674 118.654 48.2354L118.186 49.0719ZM114.998 41.8531L113.728 42.8807L114.313 43.6361L115.583 42.6084L114.998 41.8531ZM114.313 42.8807L113.043 41.8531L112.458 42.6084L113.728 43.6361L114.313 42.8807ZM114.492 43.2584V40.9461H113.549V43.2584H114.492ZM113.549 43.2584V48.9106H114.492V43.2584H113.549ZM113.043 50.3159L114.313 49.2882L113.728 48.5329L112.458 49.5606L113.043 50.3159ZM113.728 49.2882L114.998 50.3159L115.583 49.5606L114.313 48.5329L113.728 49.2882ZM113.549 48.9106V51.2228H114.492V48.9106H113.549ZM109.917 47.3482L111.431 47.9468L111.771 47.0483L110.257 46.4496L109.917 47.3482ZM111.135 47.4242L110.89 49.0505L111.822 49.1972L112.067 47.5709L111.135 47.4242ZM111.367 47.0793L109.388 48.2354L109.855 49.0719L111.835 47.9158L111.367 47.0793ZM111.835 47.9158L116.674 45.0897L116.206 44.2532L111.367 47.0793L111.835 47.9158ZM118.125 44.8208L116.61 44.2222L116.27 45.1207L117.785 45.7193L118.125 44.8208ZM116.906 44.7448L117.151 43.1185L116.219 42.9718L115.974 44.5981L116.906 44.7448ZM116.674 45.0897L118.654 43.9336L118.186 43.0971L116.206 44.2532L116.674 45.0897ZM110.257 45.7193L111.771 45.1207L111.431 44.2222L109.917 44.8208L110.257 45.7193ZM112.067 44.5981L111.822 42.9718L110.89 43.1185L111.135 44.7448L112.067 44.5981ZM111.835 44.2532L109.855 43.0971L109.388 43.9336L111.367 45.0897L111.835 44.2532ZM111.367 45.0897L116.206 47.9158L116.674 47.0793L111.835 44.2532L111.367 45.0897ZM117.785 46.4496L116.27 47.0483L116.61 47.9468L118.125 47.3482L117.785 46.4496ZM115.974 47.5709L116.219 49.1972L117.151 49.0505L116.906 47.4242L115.974 47.5709ZM116.206 47.9158L118.186 49.0719L118.654 48.2354L116.674 47.0793L116.206 47.9158Z" fill="#313131"/>
</svg>
