<svg width="290" height="104" viewBox="0 0 290 104" fill="none" xmlns="http://www.w3.org/2000/svg">
<path d="M37.0377 64.7718C38.2089 70.0903 40.1266 75.1239 42.791 79.8725C45.4413 84.5579 48.5663 88.6418 52.1657 92.1241C55.7146 95.6065 59.609 98.3607 63.8488 100.387C68.0381 102.413 73.0622 100.387 77.3618 100.387C81.206 100.387 82.7234 100.447 85.9017 98.8007C89.066 97.0912 90.7576 95.6391 95.1206 93.5487C98.6643 96.7778 102.395 99.2471 106.312 100.957C110.165 102.603 114.038 103.426 117.933 103.426C122.233 103.426 126.031 102.413 129.328 100.387C132.625 98.3607 135.306 95.6065 137.372 92.1241C139.387 88.6418 140.688 84.5579 141.275 79.8725C141.848 75.1239 141.549 70.0903 140.378 64.7718L126.115 0H105.401L119.664 64.7718C120.055 66.5446 120.171 68.2225 120.014 69.8054C119.792 71.3249 119.359 72.6862 118.713 73.8892C118.003 75.0289 117.118 75.947 116.057 76.6435C114.932 77.2766 113.661 77.5932 112.245 77.5932C110.828 77.5932 109.418 77.2766 108.014 76.6435C106.596 75.947 105.281 75.0289 104.069 73.8892C102.843 72.6862 101.81 71.3249 100.97 69.8054C100.065 68.2225 99.4171 66.5446 99.0267 64.7718L84.7636 0H64.1259L78.389 64.7718C78.7794 66.5446 78.8707 68.2225 78.6628 69.8054C78.441 71.3249 78.0073 72.6862 77.3618 73.8892C76.6517 75.0289 75.7663 75.947 74.7057 76.6435C73.5805 77.2766 72.3098 77.5932 70.8935 77.5932C69.4772 77.5932 68.067 77.2766 66.663 76.6435C65.2451 75.947 63.9554 75.0289 62.794 73.8892C61.568 72.6862 60.5095 71.3249 59.6185 69.8054C58.7135 68.2225 58.0658 66.5446 57.6754 64.7718L43.4123 0H22.7746L37.0377 64.7718Z" fill="white"/>
<path d="M111.852 64.7718C110.681 70.0903 108.763 75.1239 106.099 79.8725C103.449 84.5579 100.324 88.6418 96.7242 92.1241C93.1753 95.6065 89.2809 98.3607 85.0411 100.387C80.8518 102.413 76.6074 103.426 72.3079 103.426C68.4636 103.426 64.9523 102.603 61.774 100.957C58.6097 99.2471 55.9415 96.7778 53.7693 93.5487C50.2256 96.7778 46.4952 99.2471 42.5779 100.957C38.7252 102.603 34.8514 103.426 30.9566 103.426C26.6571 103.426 22.8588 102.413 19.5619 100.387C16.2649 98.3607 13.5835 95.6065 11.5177 92.1241C9.50253 88.6418 8.20148 84.5579 7.61458 79.8725C7.04162 75.1239 7.34072 70.0903 8.51189 64.7718L22.775 0H43.4886L29.2255 64.7718C28.8351 66.5446 28.7185 68.2225 28.8758 69.8054C29.0976 71.3249 29.5313 72.6862 30.1768 73.8892C30.8869 75.0289 31.7723 75.947 32.8329 76.6435C33.9581 77.2766 35.2288 77.5932 36.6451 77.5932C38.0614 77.5932 39.4716 77.2766 40.8756 76.6435C42.2935 75.947 43.6085 75.0289 44.8205 73.8892C46.0465 72.6862 47.0797 71.3249 47.9201 69.8054C48.8251 68.2225 49.4728 66.5446 49.8632 64.7718L64.1263 0H84.764L70.5009 64.7718C70.1105 66.5446 70.0192 68.2225 70.2271 69.8054C70.4489 71.3249 70.8826 72.6862 71.5281 73.8892C72.2382 75.0289 73.1236 75.947 74.1842 76.6435C75.3094 77.2766 76.5801 77.5932 77.9964 77.5932C79.4127 77.5932 80.8229 77.2766 82.2269 76.6435C83.6448 75.947 84.9345 75.0289 86.0959 73.8892C87.3219 72.6862 88.3804 71.3249 89.2714 69.8054C90.1764 68.2225 90.8241 66.5446 91.2145 64.7718L105.478 0H126.115L111.852 64.7718Z" fill="#58B2FF"/>
<path d="M198.983 15.5054C199.405 16.0102 199.71 17.2722 199.898 19.2914C200.133 21.3106 200.25 24.3853 200.25 28.5155V45.174H188.207V25.8309C188.207 24.3624 188.09 23.4446 187.855 23.0774C187.479 22.6185 186.61 22.3891 185.249 22.3891C184.592 22.3891 184.099 22.412 183.77 22.4579C182.455 22.5038 181.094 22.8021 179.685 23.3528V45.174H167.642V13.5092H177.431L178.769 18.8096C182.15 14.8171 186.188 12.8208 190.883 12.8208C192.574 12.8208 194.146 13.0503 195.602 13.5092C197.104 13.9681 198.231 14.6335 198.983 15.5054Z" fill="#58B2FF"/>
<path d="M220.745 32.1639C220.745 32.9899 220.768 33.8618 220.815 34.7796C220.862 35.6516 221.003 36.2023 221.238 36.4317C221.566 36.753 222.717 36.9136 224.689 36.9136L227.083 36.8447C227.506 39.0475 227.717 41.5945 227.717 44.4856C226.825 44.8068 225.51 45.1051 223.773 45.3805C222.083 45.6558 220.463 45.7935 218.913 45.7935C215.674 45.7935 213.162 45.1051 211.378 43.7284C209.64 42.3058 208.772 40.1259 208.772 37.1889V20.2551H203.489V13.991L208.772 13.5092L211.941 5.93715L220.745 5.45529V13.5092H228.21V20.2551H220.745V32.1639Z" fill="#58B2FF"/>
<path d="M251.462 36.9136C252.635 36.9136 254.819 36.7989 258.012 36.5694C258.434 36.5694 259.209 36.5235 260.336 36.4317L261.392 43.5219C257.777 45.174 253.082 46 247.306 46C241.907 46 237.751 44.6692 234.84 42.0075C231.976 39.3458 230.544 35.3303 230.544 29.9611C230.544 27.2076 230.896 24.546 231.601 21.9761C232.352 19.4062 233.197 17.6164 234.136 16.6068C235.122 15.5972 236.953 14.7253 239.63 13.991C242.306 13.2568 244.959 12.8896 247.588 12.8896C251.814 12.8896 254.983 13.6239 257.096 15.0924C259.209 16.5609 260.594 18.6031 261.251 21.2189C261.909 23.7888 262.237 27.2535 262.237 31.6132C259.045 31.7967 255.922 31.8885 252.87 31.8885H242.869C242.869 33.357 243.174 34.4584 243.785 35.1927C244.442 35.9269 245.358 36.4088 246.532 36.6382C247.705 36.8218 249.349 36.9136 251.462 36.9136ZM243.574 21.0812C243.292 21.2189 243.081 21.8154 242.94 22.8709C242.799 23.9264 242.705 25.1196 242.658 26.4504H246.32C248.527 26.4504 250.124 26.4275 251.11 26.3816C251.11 24.1788 250.781 22.6185 250.124 21.7007C249.513 20.7829 248.433 20.324 246.884 20.324C245.616 20.324 244.513 20.5764 243.574 21.0812Z" fill="#58B2FF"/>
<path d="M286.549 12.8208C287.159 12.8208 287.793 12.8896 288.45 13.0273C289.154 13.165 289.671 13.3256 290 13.5092C290 14.5188 289.882 16.1938 289.647 18.5342C289.413 20.8288 289.201 22.4579 289.014 23.4216C288.544 23.3757 287.675 23.3528 286.408 23.3528C283.45 23.3528 280.82 23.5134 278.52 23.8346V45.174H266.476V13.5092H276.548L277.956 18.6031H278.027C279.388 16.8592 280.844 15.4595 282.393 14.404C283.943 13.3485 285.328 12.8208 286.549 12.8208Z" fill="#58B2FF"/>
<path d="M153 13.294H163.3V45.174H153V13.294Z" fill="#58B2FF"/>
<path d="M159.314 1.91482C159.514 1.76733 159.548 1.49675 159.39 1.31046C159.232 1.12416 158.941 1.0927 158.742 1.24019L159.314 1.91482ZM157.498 2.15801C157.298 2.3055 157.264 2.57608 157.423 2.76237C157.581 2.94866 157.871 2.98013 158.071 2.83264L157.498 2.15801ZM157.498 2.83264C157.698 2.98013 157.988 2.94866 158.146 2.76237C158.304 2.57608 158.271 2.3055 158.071 2.15801L157.498 2.83264ZM156.827 1.24019C156.628 1.0927 156.337 1.12416 156.179 1.31046C156.021 1.49675 156.055 1.76733 156.254 1.91482L156.827 1.24019ZM157.323 2.49532C157.323 2.73293 157.53 2.92555 157.784 2.92555C158.039 2.92555 158.246 2.73293 158.246 2.49532H157.323ZM158.246 0.430228C158.246 0.192622 158.039 0 157.784 0C157.53 0 157.323 0.192622 157.323 0.430228H158.246ZM158.246 2.49532C158.246 2.25772 158.039 2.0651 157.784 2.0651C157.53 2.0651 157.323 2.25772 157.323 2.49532H158.246ZM157.323 7.54333C157.323 7.78094 157.53 7.97356 157.784 7.97356C158.039 7.97356 158.246 7.78094 158.246 7.54333H157.323ZM156.254 8.12386C156.055 8.27134 156.021 8.54192 156.179 8.72818C156.337 8.9145 156.628 8.94594 156.827 8.79845L156.254 8.12386ZM158.071 7.88063C158.271 7.73315 158.304 7.46257 158.146 7.27631C157.988 7.08999 157.698 7.05855 157.498 7.20604L158.071 7.88063ZM158.071 7.20604C157.871 7.05855 157.581 7.08999 157.423 7.27631C157.264 7.46257 157.298 7.73315 157.498 7.88063L158.071 7.20604ZM158.742 8.79845C158.941 8.94594 159.232 8.9145 159.39 8.72818C159.548 8.54192 159.514 8.27134 159.314 8.12386L158.742 8.79845ZM158.246 7.54333C158.246 7.30573 158.039 7.11311 157.784 7.11311C157.53 7.11311 157.323 7.30573 157.323 7.54333H158.246ZM157.323 9.60843C157.323 9.84603 157.53 10.0387 157.784 10.0387C158.039 10.0387 158.246 9.84603 158.246 9.60843H157.323ZM154.099 5.34544C153.861 5.25974 153.594 5.36994 153.502 5.59153C153.41 5.81313 153.528 6.06226 153.766 6.14796L154.099 5.34544ZM155.249 6.68259C155.487 6.76829 155.754 6.6581 155.846 6.4365C155.938 6.21491 155.82 5.96577 155.582 5.88007L155.249 6.68259ZM155.872 6.34684C155.91 6.11199 155.738 5.89229 155.486 5.85609C155.234 5.81996 154.998 5.98098 154.959 6.21582L155.872 6.34684ZM154.719 7.66827C154.681 7.90312 154.853 8.12282 155.105 8.15902C155.357 8.19516 155.593 8.03414 155.632 7.79929L154.719 7.66827ZM155.644 6.65488C155.866 6.537 155.943 6.27416 155.816 6.06788C155.69 5.8616 155.408 5.7899 155.187 5.90778L155.644 6.65488ZM153.248 6.94033C153.027 7.05821 152.95 7.32105 153.077 7.52733C153.203 7.73361 153.485 7.80532 153.706 7.68743L153.248 6.94033ZM155.187 5.90778C154.965 6.02566 154.888 6.2885 155.015 6.49478C155.141 6.70106 155.423 6.77277 155.644 6.65488L155.187 5.90778ZM160.382 4.13088C160.604 4.013 160.68 3.75017 160.554 3.54388C160.428 3.33757 160.146 3.2659 159.924 3.38378L160.382 4.13088ZM161.47 4.69322C161.707 4.77892 161.975 4.66872 162.067 4.44713C162.159 4.22553 162.04 3.9764 161.803 3.8907L161.47 4.69322ZM160.32 3.35606C160.082 3.27035 159.815 3.38053 159.723 3.60215C159.631 3.82376 159.749 4.07288 159.987 4.15859L160.32 3.35606ZM159.697 3.69183C159.658 3.92666 159.831 4.14637 160.083 4.18256C160.335 4.2187 160.571 4.05768 160.609 3.82282L159.697 3.69183ZM160.849 2.37037C160.888 2.13553 160.715 1.91583 160.464 1.87966C160.212 1.84349 159.976 2.00454 159.937 2.23938L160.849 2.37037ZM159.924 3.38378C159.703 3.50167 159.626 3.76448 159.753 3.97078C159.879 4.17706 160.161 4.24876 160.382 4.13088L159.924 3.38378ZM162.32 3.09832C162.542 2.98043 162.619 2.71763 162.492 2.51133C162.366 2.30503 162.084 2.23335 161.863 2.35124L162.32 3.09832ZM153.766 3.8907C153.528 3.9764 153.41 4.22553 153.502 4.44713C153.594 4.66872 153.861 4.77892 154.099 4.69322L153.766 3.8907ZM155.582 4.15859C155.82 4.07288 155.938 3.82376 155.846 3.60215C155.754 3.38053 155.487 3.27035 155.249 3.35606L155.582 4.15859ZM154.959 3.82282C154.998 4.05768 155.234 4.2187 155.486 4.18256C155.738 4.14637 155.91 3.92666 155.872 3.69183L154.959 3.82282ZM155.632 2.23938C155.593 2.00454 155.357 1.84349 155.105 1.87966C154.853 1.91583 154.681 2.13553 154.719 2.37037L155.632 2.23938ZM155.187 4.13088C155.408 4.24876 155.69 4.17706 155.816 3.97078C155.943 3.76448 155.866 3.50167 155.644 3.38378L155.187 4.13088ZM153.706 2.35124C153.485 2.23335 153.203 2.30503 153.077 2.51133C152.95 2.71763 153.027 2.98043 153.248 3.09832L153.706 2.35124ZM155.644 3.38378C155.423 3.2659 155.141 3.33757 155.015 3.54388C154.888 3.75017 154.965 4.013 155.187 4.13088L155.644 3.38378ZM159.924 6.65488C160.146 6.77277 160.428 6.70106 160.554 6.49478C160.68 6.2885 160.604 6.02566 160.382 5.90778L159.924 6.65488ZM161.803 6.14796C162.04 6.06226 162.159 5.81313 162.067 5.59153C161.975 5.36994 161.707 5.25974 161.47 5.34544L161.803 6.14796ZM159.987 5.88007C159.749 5.96577 159.631 6.21491 159.723 6.4365C159.815 6.6581 160.082 6.76829 160.32 6.68259L159.987 5.88007ZM160.609 6.21582C160.571 5.98098 160.335 5.81996 160.083 5.85609C159.831 5.89229 159.658 6.11199 159.697 6.34684L160.609 6.21582ZM159.937 7.79929C159.976 8.03414 160.212 8.19516 160.464 8.15902C160.715 8.12282 160.888 7.90312 160.849 7.66827L159.937 7.79929ZM160.382 5.90778C160.161 5.7899 159.879 5.8616 159.753 6.06788C159.626 6.27416 159.703 6.537 159.924 6.65488L160.382 5.90778ZM161.863 7.68743C162.084 7.80532 162.366 7.73361 162.492 7.52733C162.619 7.32105 162.542 7.05821 162.32 6.94033L161.863 7.68743ZM158.742 1.24019L157.498 2.15801L158.071 2.83264L159.314 1.91482L158.742 1.24019ZM158.071 2.15801L156.827 1.24019L156.254 1.91482L157.498 2.83264L158.071 2.15801ZM158.246 2.49532V0.430228H157.323V2.49532H158.246ZM157.323 2.49532V7.54333H158.246V2.49532H157.323ZM156.827 8.79845L158.071 7.88063L157.498 7.20604L156.254 8.12386L156.827 8.79845ZM157.498 7.88063L158.742 8.79845L159.314 8.12386L158.071 7.20604L157.498 7.88063ZM157.323 7.54333V9.60843H158.246V7.54333H157.323ZM153.766 6.14796L155.249 6.68259L155.582 5.88007L154.099 5.34544L153.766 6.14796ZM154.959 6.21582L154.719 7.66827L155.632 7.79929L155.872 6.34684L154.959 6.21582ZM155.187 5.90778L153.248 6.94033L153.706 7.68743L155.644 6.65488L155.187 5.90778ZM155.644 6.65488L160.382 4.13088L159.924 3.38378L155.187 5.90778L155.644 6.65488ZM161.803 3.8907L160.32 3.35606L159.987 4.15859L161.47 4.69322L161.803 3.8907ZM160.609 3.82282L160.849 2.37037L159.937 2.23938L159.697 3.69183L160.609 3.82282ZM160.382 4.13088L162.32 3.09832L161.863 2.35124L159.924 3.38378L160.382 4.13088ZM154.099 4.69322L155.582 4.15859L155.249 3.35606L153.766 3.8907L154.099 4.69322ZM155.872 3.69183L155.632 2.23938L154.719 2.37037L154.959 3.82282L155.872 3.69183ZM155.644 3.38378L153.706 2.35124L153.248 3.09832L155.187 4.13088L155.644 3.38378ZM155.187 4.13088L159.924 6.65488L160.382 5.90778L155.644 3.38378L155.187 4.13088ZM161.47 5.34544L159.987 5.88007L160.32 6.68259L161.803 6.14796L161.47 5.34544ZM159.697 6.34684L159.937 7.79929L160.849 7.66827L160.609 6.21582L159.697 6.34684ZM159.924 6.65488L161.863 7.68743L162.32 6.94033L160.382 5.90778L159.924 6.65488Z" fill="white"/>
<path d="M153 69.9755H163.264V102.166H153V69.9755Z" fill="#58B2FF"/>
<path d="M193.7 91.3228C193.7 95.4469 192.366 98.4125 189.699 100.22C187.079 102.027 183.336 102.93 178.469 102.93C175.054 102.93 171.123 102.444 166.678 101.471C166.772 100.544 166.983 99.2235 167.31 97.5089C167.684 95.7481 167.988 94.4043 168.222 93.4775C169.907 93.7556 171.778 93.9873 173.837 94.1726C175.896 94.3116 177.651 94.3811 179.101 94.3811C180.364 94.3811 181.136 94.3116 181.417 94.1726C181.464 94.1263 181.511 94.0104 181.558 93.8251C181.651 93.5934 181.698 93.3617 181.698 93.13C181.698 92.2032 181.113 91.5777 179.943 91.2533C179.569 91.1606 178.142 90.7668 175.662 90.0717C173.182 89.3766 171.147 88.1255 169.556 86.3183C168.012 84.4648 167.24 82.1711 167.24 79.4371C167.24 78.0006 167.567 76.402 168.222 74.6411C168.877 72.8803 169.579 71.7682 170.328 71.3048C170.889 70.9341 172.246 70.5634 174.399 70.1927C176.551 69.7756 178.54 69.5671 180.364 69.5671C184.248 69.5671 188.155 69.8452 192.085 70.4012C192.085 71.2353 191.968 72.6486 191.734 74.6411C191.5 76.5873 191.29 77.8153 191.103 78.325C187.126 77.8153 183.92 77.5604 181.487 77.5604C180.224 77.5604 179.405 77.6299 179.031 77.769C178.937 77.8153 178.844 77.9543 178.75 78.186C178.657 78.3713 178.61 78.6262 178.61 78.9506C178.61 79.5993 178.82 80.0627 179.241 80.3407C179.663 80.6651 180.762 81.059 182.54 81.5223C184.646 82.1247 186.447 82.7503 187.944 83.399C189.488 84.0478 190.822 85.0209 191.945 86.3183C193.115 87.6158 193.7 89.2839 193.7 91.3228Z" fill="#58B2FF"/>
<path d="M217.261 93.8251C218.431 93.8251 220.607 93.7092 223.789 93.4775C224.21 93.4775 224.982 93.4312 226.105 93.3385L227.157 100.498C223.555 102.166 218.876 103 213.12 103C207.74 103 203.599 101.656 200.698 98.9686C197.844 96.281 196.416 92.2264 196.416 86.8049C196.416 84.0246 196.767 81.337 197.469 78.7421C198.218 76.1471 199.06 74.3399 199.996 73.3205C200.978 72.3011 202.803 71.4206 205.47 70.6792C208.137 69.9378 210.781 69.5671 213.401 69.5671C217.612 69.5671 220.771 70.3085 222.876 71.7914C224.982 73.2742 226.362 75.3362 227.017 77.9775C227.672 80.5724 228 84.0709 228 88.473C224.818 88.6584 221.706 88.7511 218.665 88.7511H208.699C208.699 90.2339 209.003 91.346 209.611 92.0874C210.266 92.8288 211.179 93.3154 212.348 93.547C213.518 93.7324 215.156 93.8251 217.261 93.8251ZM209.401 77.8385C209.12 77.9775 208.909 78.5799 208.769 79.6456C208.629 80.7114 208.535 81.9162 208.488 83.26H212.138C214.337 83.26 215.928 83.2368 216.91 83.1905C216.91 80.9663 216.583 79.3908 215.928 78.464C215.32 77.5373 214.243 77.0739 212.699 77.0739C211.436 77.0739 210.336 77.3287 209.401 77.8385Z" fill="#58B2FF"/>
<path d="M160.024 59.9335C160.223 59.7845 160.256 59.5113 160.099 59.3232C159.941 59.1351 159.652 59.1033 159.453 59.2523L160.024 59.9335ZM158.213 60.179C158.014 60.328 157.981 60.6012 158.138 60.7893C158.296 60.9774 158.585 61.0092 158.784 60.8602L158.213 60.179ZM158.213 60.8602C158.413 61.0092 158.702 60.9774 158.859 60.7893C159.017 60.6012 158.983 60.328 158.784 60.179L158.213 60.8602ZM157.545 59.2523C157.346 59.1033 157.057 59.1351 156.899 59.3232C156.741 59.5113 156.775 59.7845 156.974 59.9335L157.545 59.2523ZM158.039 60.5196C158.039 60.7595 158.245 60.954 158.499 60.954C158.753 60.954 158.959 60.7595 158.959 60.5196H158.039ZM158.959 58.4344C158.959 58.1945 158.753 58 158.499 58C158.245 58 158.039 58.1945 158.039 58.4344H158.959ZM158.959 60.5196C158.959 60.2797 158.753 60.0852 158.499 60.0852C158.245 60.0852 158.039 60.2797 158.039 60.5196H158.959ZM158.039 65.6168C158.039 65.8567 158.245 66.0512 158.499 66.0512C158.753 66.0512 158.959 65.8567 158.959 65.6168H158.039ZM156.974 66.203C156.775 66.3519 156.741 66.6251 156.899 66.8132C157.057 67.0013 157.346 67.0331 157.545 66.8842L156.974 66.203ZM158.784 65.9574C158.983 65.8085 159.017 65.5353 158.859 65.3472C158.702 65.159 158.413 65.1273 158.213 65.2762L158.784 65.9574ZM158.784 65.2762C158.585 65.1273 158.296 65.159 158.138 65.3472C157.981 65.5353 158.014 65.8085 158.213 65.9574L158.784 65.2762ZM159.453 66.8842C159.652 67.0331 159.941 67.0013 160.099 66.8132C160.256 66.6251 160.223 66.3519 160.024 66.203L159.453 66.8842ZM158.959 65.6168C158.959 65.3769 158.753 65.1824 158.499 65.1824C158.245 65.1824 158.039 65.3769 158.039 65.6168H158.959ZM158.039 67.702C158.039 67.9419 158.245 68.1364 158.499 68.1364C158.753 68.1364 158.959 67.9419 158.959 67.702H158.039ZM154.826 63.3975C154.589 63.311 154.323 63.4222 154.232 63.646C154.14 63.8698 154.258 64.1213 154.495 64.2078L154.826 63.3975ZM155.972 64.7477C156.209 64.8342 156.476 64.7229 156.567 64.4992C156.659 64.2754 156.541 64.0239 156.304 63.9373L155.972 64.7477ZM156.593 64.4087C156.631 64.1715 156.459 63.9497 156.208 63.9131C155.957 63.8766 155.722 64.0392 155.684 64.2764L156.593 64.4087ZM155.445 65.743C155.406 65.9801 155.578 66.2019 155.829 66.2385C156.08 66.275 156.315 66.1124 156.354 65.8753L155.445 65.743ZM156.366 64.7197C156.587 64.6007 156.664 64.3353 156.538 64.127C156.411 63.9187 156.131 63.8463 155.91 63.9653L156.366 64.7197ZM153.979 65.0079C153.758 65.127 153.681 65.3924 153.807 65.6007C153.933 65.8089 154.214 65.8813 154.435 65.7623L153.979 65.0079ZM155.91 63.9653C155.69 64.0844 155.613 64.3498 155.739 64.558C155.865 64.7663 156.146 64.8387 156.366 64.7197L155.91 63.9653ZM161.088 62.1711C161.308 62.0521 161.385 61.7867 161.259 61.5784C161.133 61.3701 160.852 61.2977 160.631 61.4167L161.088 62.1711ZM162.171 62.7389C162.408 62.8255 162.675 62.7142 162.766 62.4904C162.858 62.2667 162.74 62.0151 162.503 61.9286L162.171 62.7389ZM161.025 61.3888C160.789 61.3022 160.522 61.4135 160.431 61.6372C160.339 61.861 160.457 62.1126 160.694 62.1991L161.025 61.3888ZM160.405 61.7278C160.366 61.9649 160.539 62.1868 160.79 62.2233C161.041 62.2598 161.275 62.0972 161.314 61.8601L160.405 61.7278ZM161.553 60.3935C161.592 60.1563 161.42 59.9345 161.169 59.898C160.918 59.8614 160.683 60.0241 160.644 60.2612L161.553 60.3935ZM160.631 61.4167C160.411 61.5358 160.334 61.8011 160.46 62.0095C160.586 62.2177 160.867 62.2901 161.088 62.1711L160.631 61.4167ZM163.019 61.1285C163.24 61.0095 163.316 60.7441 163.19 60.5358C163.064 60.3275 162.783 60.2551 162.563 60.3741L163.019 61.1285ZM154.495 61.9286C154.258 62.0151 154.14 62.2667 154.232 62.4904C154.323 62.7142 154.589 62.8255 154.826 62.7389L154.495 61.9286ZM156.304 62.1991C156.541 62.1126 156.659 61.861 156.567 61.6372C156.476 61.4135 156.209 61.3022 155.972 61.3888L156.304 62.1991ZM155.684 61.8601C155.722 62.0972 155.957 62.2598 156.208 62.2233C156.459 62.1868 156.631 61.9649 156.593 61.7278L155.684 61.8601ZM156.354 60.2612C156.315 60.0241 156.08 59.8614 155.829 59.898C155.578 59.9345 155.406 60.1563 155.445 60.3935L156.354 60.2612ZM155.91 62.1711C156.131 62.2901 156.411 62.2177 156.538 62.0095C156.664 61.8011 156.587 61.5358 156.366 61.4167L155.91 62.1711ZM154.435 60.3741C154.214 60.2551 153.933 60.3275 153.807 60.5358C153.681 60.7441 153.758 61.0095 153.979 61.1285L154.435 60.3741ZM156.366 61.4167C156.146 61.2977 155.865 61.3701 155.739 61.5784C155.613 61.7867 155.69 62.0521 155.91 62.1711L156.366 61.4167ZM160.631 64.7197C160.852 64.8387 161.133 64.7663 161.259 64.558C161.385 64.3498 161.308 64.0844 161.088 63.9653L160.631 64.7197ZM162.503 64.2078C162.74 64.1213 162.858 63.8698 162.766 63.646C162.675 63.4222 162.408 63.311 162.171 63.3975L162.503 64.2078ZM160.694 63.9373C160.457 64.0239 160.339 64.2754 160.431 64.4992C160.522 64.7229 160.789 64.8342 161.025 64.7477L160.694 63.9373ZM161.314 64.2764C161.275 64.0392 161.041 63.8766 160.79 63.9131C160.539 63.9497 160.366 64.1715 160.405 64.4087L161.314 64.2764ZM160.644 65.8753C160.683 66.1124 160.918 66.275 161.169 66.2385C161.42 66.2019 161.592 65.9801 161.553 65.743L160.644 65.8753ZM161.088 63.9653C160.867 63.8463 160.586 63.9187 160.46 64.127C160.334 64.3353 160.411 64.6007 160.631 64.7197L161.088 63.9653ZM162.563 65.7623C162.783 65.8813 163.064 65.8089 163.19 65.6007C163.316 65.3924 163.24 65.127 163.019 65.0079L162.563 65.7623ZM159.453 59.2523L158.213 60.179L158.784 60.8602L160.024 59.9335L159.453 59.2523ZM158.784 60.179L157.545 59.2523L156.974 59.9335L158.213 60.8602L158.784 60.179ZM158.959 60.5196V58.4344H158.039V60.5196H158.959ZM158.039 60.5196V65.6168H158.959V60.5196H158.039ZM157.545 66.8842L158.784 65.9574L158.213 65.2762L156.974 66.203L157.545 66.8842ZM158.213 65.9574L159.453 66.8842L160.024 66.203L158.784 65.2762L158.213 65.9574ZM158.039 65.6168V67.702H158.959V65.6168H158.039ZM154.495 64.2078L155.972 64.7477L156.304 63.9373L154.826 63.3975L154.495 64.2078ZM155.684 64.2764L155.445 65.743L156.354 65.8753L156.593 64.4087L155.684 64.2764ZM155.91 63.9653L153.979 65.0079L154.435 65.7623L156.366 64.7197L155.91 63.9653ZM156.366 64.7197L161.088 62.1711L160.631 61.4167L155.91 63.9653L156.366 64.7197ZM162.503 61.9286L161.025 61.3888L160.694 62.1991L162.171 62.7389L162.503 61.9286ZM161.314 61.8601L161.553 60.3935L160.644 60.2612L160.405 61.7278L161.314 61.8601ZM161.088 62.1711L163.019 61.1285L162.563 60.3741L160.631 61.4167L161.088 62.1711ZM154.826 62.7389L156.304 62.1991L155.972 61.3888L154.495 61.9286L154.826 62.7389ZM156.593 61.7278L156.354 60.2612L155.445 60.3935L155.684 61.8601L156.593 61.7278ZM156.366 61.4167L154.435 60.3741L153.979 61.1285L155.91 62.1711L156.366 61.4167ZM155.91 62.1711L160.631 64.7197L161.088 63.9653L156.366 61.4167L155.91 62.1711ZM162.171 63.3975L160.694 63.9373L161.025 64.7477L162.503 64.2078L162.171 63.3975ZM160.405 64.4087L160.644 65.8753L161.553 65.743L161.314 64.2764L160.405 64.4087ZM160.631 64.7197L162.563 65.7623L163.019 65.0079L161.088 63.9653L160.631 64.7197Z" fill="white"/>
</svg>
