<svg width="29" height="29" viewBox="0 0 29 29" fill="none" xmlns="http://www.w3.org/2000/svg">
<path id="Vector" d="M10.5715 10.45C10.8889 9.54774 11.5154 8.78693 12.3399 8.30232C13.1645 7.8177 14.134 7.64055 15.0767 7.80225C16.0194 7.96394 16.8744 8.45404 17.4903 9.18575C18.1063 9.91745 18.4434 10.8435 18.442 11.8C18.442 14.5 14.392 15.85 14.392 15.85M14.5 21.25H14.5135M28 14.5C28 21.9558 21.9558 28 14.5 28C7.04416 28 1 21.9558 1 14.5C1 7.04416 7.04416 1 14.5 1C21.9558 1 28 7.04416 28 14.5Z" stroke="white" stroke-width="2" stroke-linecap="round" stroke-linejoin="round"/>
</svg>
