<svg width="30" height="32" viewBox="0 0 30 32" fill="none" xmlns="http://www.w3.org/2000/svg">
<path d="M14.8564 1H14.1964C13.4007 1 12.6377 1.31607 12.075 1.87868C11.5124 2.44129 11.1964 3.20435 11.1964 4V4.27C11.1958 4.79609 11.057 5.31278 10.7937 5.76826C10.5304 6.22373 10.152 6.60196 9.69637 6.865L9.05137 7.24C8.59531 7.5033 8.07798 7.64192 7.55137 7.64192C7.02476 7.64192 6.50743 7.5033 6.05137 7.24L5.82637 7.12C5.13797 6.72289 4.32013 6.61517 3.55237 6.82046C2.78462 7.02576 2.1297 7.5273 1.73137 8.215L1.40137 8.785C1.00426 9.4734 0.896536 10.2912 1.10183 11.059C1.30713 11.8268 1.80867 12.4817 2.49637 12.88L2.72137 13.03C3.17478 13.2918 3.5518 13.6676 3.81495 14.1202C4.07809 14.5729 4.21821 15.0865 4.22137 15.61V16.375C4.22347 16.9036 4.08585 17.4234 3.82244 17.8818C3.55903 18.3401 3.17918 18.7207 2.72137 18.985L2.49637 19.12C1.80867 19.5183 1.30713 20.1732 1.10183 20.941C0.896536 21.7088 1.00426 22.5266 1.40137 23.215L1.73137 23.785C2.1297 24.4727 2.78462 24.9742 3.55237 25.1795C4.32013 25.3848 5.13797 25.2771 5.82637 24.88L6.05137 24.76C6.50743 24.4967 7.02476 24.3581 7.55137 24.3581C8.07798 24.3581 8.59531 24.4967 9.05137 24.76L9.69637 25.135C10.152 25.398 10.5304 25.7763 10.7937 26.2317C11.057 26.6872 11.1958 27.2039 11.1964 27.73V28C11.1964 28.7956 11.5124 29.5587 12.075 30.1213C12.6377 30.6839 13.4007 31 14.1964 31H14.8564C15.652 31 16.4151 30.6839 16.9777 30.1213C17.5403 29.5587 17.8564 28.7956 17.8564 28V27.73C17.8569 27.2039 17.9958 26.6872 18.2591 26.2317C18.5223 25.7763 18.9008 25.398 19.3564 25.135L20.0014 24.76C20.4574 24.4967 20.9748 24.3581 21.5014 24.3581C22.028 24.3581 22.5453 24.4967 23.0014 24.76L23.2264 24.88C23.9148 25.2771 24.7326 25.3848 25.5004 25.1795C26.2681 24.9742 26.923 24.4727 27.3214 23.785L27.6514 23.2C28.0485 22.5116 28.1562 21.6938 27.9509 20.926C27.7456 20.1582 27.2441 19.5033 26.5564 19.105L26.3314 18.985C25.8736 18.7207 25.4937 18.3401 25.2303 17.8818C24.9669 17.4234 24.8293 16.9036 24.8314 16.375V15.625C24.8293 15.0964 24.9669 14.5766 25.2303 14.1182C25.4937 13.6599 25.8736 13.2793 26.3314 13.015L26.5564 12.88C27.2441 12.4817 27.7456 11.8268 27.9509 11.059C28.1562 10.2912 28.0485 9.4734 27.6514 8.785L27.3214 8.215C26.923 7.5273 26.2681 7.02576 25.5004 6.82046C24.7326 6.61517 23.9148 6.72289 23.2264 7.12L23.0014 7.24C22.5453 7.5033 22.028 7.64192 21.5014 7.64192C20.9748 7.64192 20.4574 7.5033 20.0014 7.24L19.3564 6.865C18.9008 6.60196 18.5223 6.22373 18.2591 5.76826C17.9958 5.31278 17.8569 4.79609 17.8564 4.27V4C17.8564 3.20435 17.5403 2.44129 16.9777 1.87868C16.4151 1.31607 15.652 1 14.8564 1Z" stroke="white" stroke-width="2" stroke-linecap="round" stroke-linejoin="round"/>
<path d="M14.5264 20.5C17.0116 20.5 19.0264 18.4853 19.0264 16C19.0264 13.5147 17.0116 11.5 14.5264 11.5C12.0411 11.5 10.0264 13.5147 10.0264 16C10.0264 18.4853 12.0411 20.5 14.5264 20.5Z" stroke="white" stroke-width="2" stroke-linecap="round" stroke-linejoin="round"/>
</svg>
